Normalized EMG Linear Envelopes
nRows=163
nColumns=4

endheader
time	 med_gas_r	  soleus_r	 tib_ant_r	
2.31235	  0.108912	  0.117841	  0.012262	
2.37485	  0.106291	  0.115571	  0.011639	
2.43734	  0.102347	  0.113184	  0.011319	
2.49984	  0.099111	  0.113021	  0.011292	
2.56234	  0.095582	  0.114578	  0.011484	
2.62483	  0.092867	  0.117354	  0.011931	
2.68733	  0.092084	  0.120755	  0.012328	
2.74982	  0.092856	  0.124314	  0.012718	
2.81232	  0.093288	  0.126099	  0.012903	
2.87482	  0.093451	  0.124403	  0.012420	
2.93731	  0.093206	  0.120065	  0.011490	
2.99981	  0.092972	  0.115398	  0.010713	
3.0623	  0.092928	  0.113326	  0.010361	
3.1248	  0.092737	  0.113353	  0.010470	
3.1873	  0.093637	  0.113324	  0.010904	
3.24979	  0.095353	  0.113108	  0.011126	
3.31229	  0.097166	  0.112603	  0.010838	
3.37478	  0.098147	  0.112547	  0.010431	
3.43728	  0.097531	  0.113179	  0.010140	
3.49978	  0.094954	  0.114776	  0.010011	
3.56227	  0.092101	  0.116795	  0.010232	
3.62477	  0.089434	  0.117006	  0.010658	
3.68726	  0.088957	  0.116019	  0.011033	
3.74976	  0.091818	  0.116105	  0.011286	
3.81226	  0.094395	  0.117036	  0.011273	
3.87475	  0.095661	  0.116958	  0.010806	
3.93725	  0.096875	  0.114565	  0.010367	
3.99974	  0.100801	  0.110720	  0.010154	
4.06224	  0.108195	  0.106200	  0.010047	
4.12474	  0.116337	  0.101963	  0.010188	
4.18723	  0.124003	  0.099843	  0.010463	
4.24973	  0.124330	  0.100626	  0.010632	
4.31222	  0.116141	  0.104209	  0.010902	
4.37472	  0.108598	  0.108162	  0.011412	
4.43722	  0.105521	  0.110934	  0.012238	
4.49971	  0.104794	  0.112685	  0.013568	
4.56221	  0.105941	  0.114234	  0.014971	
4.6247	  0.108435	  0.116616	  0.015642	
4.6872	  0.109840	  0.120313	  0.015545	
4.7497	  0.113725	  0.123256	  0.015314	
4.81219	  0.124945	  0.124469	  0.016313	
4.87469	  0.147625	  0.126910	  0.019827	
4.93718	  0.173419	  0.134507	  0.027547	
4.99968	  0.188731	  0.144988	  0.041401	
5.06218	  0.203781	  0.157078	  0.061702	
5.12467	  0.225105	  0.171281	  0.084904	
5.18717	  0.261514	  0.183159	  0.104682	
5.24966	  0.302967	  0.196992	  0.128206	
5.31216	  0.322846	  0.217055	  0.155078	
5.37466	  0.330079	  0.243626	  0.184228	
5.43715	  0.338329	  0.267952	  0.209295	
5.49965	  0.332365	  0.285530	  0.225612	
5.56214	  0.314833	  0.301905	  0.242502	
5.62464	  0.316494	  0.317337	  0.260620	
5.68714	  0.337433	  0.329562	  0.274480	
5.74963	  0.351232	  0.346882	  0.278958	
5.81213	  0.363629	  0.363637	  0.274685	
5.87462	  0.378223	  0.380376	  0.268523	
5.93712	  0.377240	  0.400074	  0.274039	
5.99962	  0.374332	  0.415877	  0.290906	
6.06211	  0.374771	  0.417558	  0.308277	
6.12461	  0.380520	  0.410020	  0.328793	
6.1871	  0.407289	  0.413791	  0.349965	
6.2496	  0.428527	  0.430211	  0.373027	
6.3121	  0.452094	  0.470113	  0.389697	
6.37459	  0.468778	  0.527921	  0.406798	
6.43709	  0.475642	  0.585392	  0.425405	
6.49958	  0.483244	  0.631219	  0.455443	
6.56208	  0.484783	  0.652073	  0.498891	
6.62458	  0.496915	  0.634546	  0.549619	
6.68707	  0.526601	  0.606132	  0.598319	
6.74957	  0.582655	  0.604180	  0.623502	
6.81206	  0.614950	  0.626767	  0.608969	
6.87456	  0.641279	  0.653618	  0.594732	
6.93706	  0.671752	  0.654389	  0.593418	
6.99955	  0.687607	  0.639005	  0.586435	
7.06205	  0.666788	  0.630728	  0.574328	
7.12454	  0.643452	  0.631816	  0.573477	
7.18704	  0.630978	  0.636537	  0.572145	
7.24954	  0.594090	  0.641359	  0.573053	
7.31203	  0.575895	  0.639636	  0.595027	
7.37453	  0.604587	  0.633210	  0.615678	
7.43702	  0.614800	  0.619560	  0.612553	
7.49952	  0.583217	  0.597714	  0.603008	
7.56202	  0.543440	  0.581917	  0.598801	
7.62451	  0.544208	  0.581713	  0.605865	
7.68701	  0.606009	  0.597680	  0.621229	
7.7495	  0.656316	  0.615418	  0.628475	
7.812	  0.661986	  0.641274	  0.629314	
7.8745	  0.670495	  0.680765	  0.641214	
7.93699	  0.684011	  0.726509	  0.661668	
7.99949	  0.707151	  0.783134	  0.683628	
8.06198	  0.727982	  0.836368	  0.688189	
8.12448	  0.718877	  0.875020	  0.661361	
8.18698	  0.699509	  0.877669	  0.633066	
8.24947	  0.683018	  0.849307	  0.624700	
8.31197	  0.642636	  0.830647	  0.640619	
8.37446	  0.623100	  0.827720	  0.677611	
8.43696	  0.636063	  0.826307	  0.725502	
8.49946	  0.655881	  0.809133	  0.758770	
8.56195	  0.644865	  0.792106	  0.751795	
8.62445	  0.620790	  0.783578	  0.720462	
8.68694	  0.637614	  0.782610	  0.690979	
8.74944	  0.658645	  0.775294	  0.675327	
8.81194	  0.637954	  0.756619	  0.674308	
8.87443	  0.611249	  0.733275	  0.690687	
8.93693	  0.594581	  0.726083	  0.725485	
8.99942	  0.566080	  0.719621	  0.758779	
9.06192	  0.504051	  0.704954	  0.752748	
9.12442	  0.449741	  0.698185	  0.692427	
9.18691	  0.451559	  0.695648	  0.626038	
9.24941	  0.511795	  0.706787	  0.578420	
9.3119	  0.572135	  0.727592	  0.565406	
9.3744	  0.613171	  0.765558	  0.582933	
9.4369	  0.663382	  0.804826	  0.624266	
9.49939	  0.721552	  0.834886	  0.668750	
9.56189	  0.745726	  0.834485	  0.690949	
9.62438	  0.716623	  0.800359	  0.690579	
9.68688	  0.695123	  0.757590	  0.669787	
9.74938	  0.670928	  0.715625	  0.650805	
9.81187	  0.631374	  0.682092	  0.632533	
9.87437	  0.609592	  0.676869	  0.600552	
9.93686	  0.558898	  0.706875	  0.586121	
9.99936	  0.504239	  0.749875	  0.595039	
10.0619	  0.465987	  0.787473	  0.618803	
10.1244	  0.450973	  0.807797	  0.634967	
10.1868	  0.466410	  0.786288	  0.631965	
10.2493	  0.495440	  0.747663	  0.620649	
10.3118	  0.470143	  0.729385	  0.598430	
10.3743	  0.399339	  0.721606	  0.576340	
10.4368	  0.328221	  0.689558	  0.571429	
10.4993	  0.289247	  0.640241	  0.578849	
10.5618	  0.253790	  0.593319	  0.586554	
10.6243	  0.211801	  0.551543	  0.583425	
10.6868	  0.174866	  0.510158	  0.563413	
10.7493	  0.144577	  0.472009	  0.525767	
10.8118	  0.124571	  0.430387	  0.483229	
10.8743	  0.118678	  0.376658	  0.438435	
10.9368	  0.119597	  0.327995	  0.400621	
10.9993	  0.119990	  0.285891	  0.367575	
11.0618	  0.122336	  0.259808	  0.333760	
11.1243	  0.124092	  0.245290	  0.301045	
11.1868	  0.119880	  0.232257	  0.263481	
11.2493	  0.112233	  0.215059	  0.224555	
11.3118	  0.108097	  0.192981	  0.197615	
11.3743	  0.104877	  0.175501	  0.177200	
11.4368	  0.100992	  0.162858	  0.157697	
11.4993	  0.099987	  0.153970	  0.141803	
11.5618	  0.105109	  0.148364	  0.126527	
11.6243	  0.114303	  0.145408	  0.111908	
11.6868	  0.117229	  0.144486	  0.102655	
11.7492	  0.114300	  0.141165	  0.092269	
11.8117	  0.112058	  0.134912	  0.082321	
11.8742	  0.110116	  0.132678	  0.073545	
11.9367	  0.106748	  0.138434	  0.067993	
11.9992	  0.107450	  0.151985	  0.064589	
12.0617	  0.112298	  0.164433	  0.061510	
12.1242	  0.115099	  0.171364	  0.059831	
12.1867	  0.110605	  0.169472	  0.054858	
12.2492	  0.105773	  0.161393	  0.049987	
12.3117	  0.104902	  0.152768	  0.049398	
12.3742	  0.104603	  0.146369	  0.051324	
12.4367	  0.105150	  0.141773	  0.049357	
